<svg width="325" height="319" viewBox="0 0 325 319" fill="none" xmlns="http://www.w3.org/2000/svg">
<g filter="url(#filter0_d_106_430)">
<rect x="116.465" y="96.8186" width="10.4779" height="14.3353" rx="4.28449" fill="white" stroke="black" stroke-width="1.6" stroke-linecap="round" stroke-linejoin="round"/>
<rect x="116.465" y="113.287" width="10.4779" height="14.3353" rx="4.28449" fill="white" stroke="black" stroke-width="1.6" stroke-linecap="round" stroke-linejoin="round"/>
<rect x="119.19" y="57.4949" width="114.754" height="215.661" rx="14.7573" fill="white"/>
<mask id="mask0_106_430" style="mask-type:luminance" maskUnits="userSpaceOnUse" x="119" y="57" width="115" height="217">
<rect x="119.19" y="57.4949" width="114.754" height="215.661" rx="14.7573" fill="white"/>
</mask>
<g mask="url(#mask0_106_430)">
<path d="M174.63 52.7048C158.47 65.2919 218.689 54.1837 228.023 66.1311C239.989 81.4454 236.007 109.648 236.007 109.648L245.228 62.7707L204.881 43.0547" fill="#D6DCF2"/>
</g>
<rect x="119.19" y="57.4949" width="114.754" height="215.661" rx="14.7573" stroke="black" stroke-width="1.6" stroke-linecap="round" stroke-linejoin="round"/>
<path d="M214.576 62.7708H207.065C204.646 62.7708 202.685 64.7702 202.685 67.2366V67.2366C202.685 69.7031 200.724 71.7025 198.305 71.7025H154.829C152.41 71.7025 150.449 69.7031 150.449 67.2366V67.2366C150.449 64.7702 148.487 62.7708 146.068 62.7708H138.558C131.131 62.7708 125.11 68.9092 125.11 76.4814V250.98C125.11 258.553 131.131 264.691 138.558 264.691H214.576C222.003 264.691 228.023 258.553 228.023 250.98V76.4813C228.023 68.9092 222.003 62.7708 214.576 62.7708Z" fill="#1A80FD"/>
<path fill-rule="evenodd" clip-rule="evenodd" d="M214.576 62.7708H207.065C204.646 62.7708 202.685 64.7702 202.685 67.2366V67.2366C202.685 69.7031 200.724 71.7025 198.305 71.7025H154.829C152.41 71.7025 150.449 69.7031 150.449 67.2366V67.2366C150.449 64.7702 148.487 62.7708 146.068 62.7708H138.558C131.131 62.7708 125.11 68.9092 125.11 76.4814V250.98C125.11 258.553 131.131 264.691 138.558 264.691H214.576C222.003 264.691 228.023 258.553 228.023 250.98V76.4813C228.023 68.9092 222.003 62.7708 214.576 62.7708Z" stroke="black" stroke-width="1.6" stroke-linecap="round" stroke-linejoin="round"/>
<path d="M177.614 206.272C175.729 207.819 173.66 209.127 171.454 210.165" stroke="black" stroke-width="1.6" stroke-linecap="round" stroke-linejoin="round"/>
<path d="M284.009 86.9509H223.015C221.295 86.9519 219.901 88.3472 219.902 90.0674V118.015C219.901 119.735 221.295 121.131 223.015 121.132H262.888C264.495 123.163 266.328 125.476 267.66 127.157C268.276 127.934 269.517 127.488 269.517 126.496V121.132H284.009C285.73 121.131 287.123 119.735 287.122 118.015V90.0674C287.123 88.3472 285.73 86.9519 284.009 86.9509V86.9509Z" fill="#FCB006"/>
<mask id="mask1_106_430" style="mask-type:luminance" maskUnits="userSpaceOnUse" x="219" y="86" width="69" height="42">
<path fill-rule="evenodd" clip-rule="evenodd" d="M284.009 86.9509H223.015C221.295 86.9519 219.901 88.3472 219.902 90.0674V118.015C219.901 119.735 221.295 121.131 223.015 121.132H262.888C264.495 123.163 266.328 125.476 267.66 127.157C268.276 127.934 269.517 127.488 269.517 126.496V121.132H284.009C285.73 121.131 287.123 119.735 287.122 118.015V90.0674C287.123 88.3472 285.73 86.9519 284.009 86.9509V86.9509Z" fill="white"/>
</mask>
<g mask="url(#mask1_106_430)">
<path d="M287.122 84.8423C286.699 127.268 212.806 120.306 212.806 120.306L274.093 137.276L294.305 134.23L299.086 85.2774" fill="#FDD504"/>
</g>
<path fill-rule="evenodd" clip-rule="evenodd" d="M284.009 86.9509H223.015C221.295 86.9519 219.901 88.3472 219.902 90.0674V118.015C219.901 119.735 221.295 121.131 223.015 121.132H262.888C264.495 123.163 266.328 125.476 267.66 127.157C268.276 127.934 269.517 127.488 269.517 126.496V121.132H284.009C285.73 121.131 287.123 119.735 287.122 118.015V90.0674C287.123 88.3472 285.73 86.9519 284.009 86.9509V86.9509Z" stroke="black" stroke-width="1.6" stroke-linecap="round" stroke-linejoin="round"/>
<ellipse cx="233.474" cy="103.107" rx="3.10947" ry="3.11284" fill="white" stroke="black" stroke-width="1.6" stroke-linecap="round" stroke-linejoin="round"/>
<ellipse cx="246.473" cy="103.107" rx="3.10947" ry="3.11284" fill="white" stroke="black" stroke-width="1.6" stroke-linecap="round" stroke-linejoin="round"/>
<ellipse cx="259.472" cy="103.107" rx="3.10947" ry="3.11284" fill="white" stroke="black" stroke-width="1.6" stroke-linecap="round" stroke-linejoin="round"/>
<ellipse cx="272.471" cy="103.107" rx="3.10947" ry="3.11284" fill="white" stroke="black" stroke-width="1.6" stroke-linecap="round" stroke-linejoin="round"/>
<path d="M238.021 91.6818L233.029 95.2996" stroke="black" stroke-width="1.6" stroke-linecap="round" stroke-linejoin="round"/>
<path d="M275.169 113.22L272.212 114.324" stroke="black" stroke-width="1.6" stroke-linecap="round" stroke-linejoin="round"/>
<path d="M74.291 110.77H89.7826V121.542C89.7826 125.462 86.6052 128.639 82.6856 128.639H81.3879C77.4684 128.639 74.291 125.462 74.291 121.542V110.77V110.77Z" fill="#E43334" stroke="black" stroke-width="1.6" stroke-linecap="round" stroke-linejoin="round"/>
<path d="M88.2791 125.043H75.7945C74.4479 125.043 73.1565 124.508 72.2043 123.556C71.2521 122.604 70.7172 121.313 70.7172 119.966V107.174H93.3564V119.966C93.3564 121.313 92.8215 122.604 91.8693 123.556C90.9171 124.508 89.6257 125.043 88.2791 125.043Z" fill="#E43334"/>
<mask id="mask2_106_430" style="mask-type:luminance" maskUnits="userSpaceOnUse" x="70" y="107" width="24" height="19">
<path fill-rule="evenodd" clip-rule="evenodd" d="M88.2791 125.043H75.7945C74.4479 125.043 73.1565 124.508 72.2043 123.556C71.2521 122.604 70.7172 121.313 70.7172 119.966V107.174H93.3564V119.966C93.3564 121.313 92.8215 122.604 91.8693 123.556C90.9171 124.508 89.6257 125.043 88.2791 125.043Z" fill="white"/>
</mask>
<g mask="url(#mask2_106_430)">
<path d="M72.7932 125.879C66.8571 108.051 83.0034 111.467 96.5378 110.77C110.072 110.072 88.2272 105.674 88.2272 105.674L70.7172 107.174L68.8754 115.064L69.8564 124.453" fill="#C11F27"/>
</g>
<path fill-rule="evenodd" clip-rule="evenodd" d="M88.2791 125.043H75.7945C74.4479 125.043 73.1565 124.508 72.2043 123.556C71.2521 122.604 70.7172 121.313 70.7172 119.966V107.174H93.3564V119.966C93.3564 121.313 92.8215 122.604 91.8693 123.556C90.9171 124.508 89.6257 125.043 88.2791 125.043Z" stroke="black" stroke-width="1.6" stroke-linecap="round" stroke-linejoin="round"/>
<path d="M104.241 77.2098C104.241 65.0561 94.4968 55.1806 82.4028 54.9849C74.3799 54.8644 66.9143 59.0756 62.8677 66.0043C58.8212 72.933 58.8213 81.5044 62.868 88.4329C66.5193 94.6673 68.5404 101.723 68.5404 108.95V108.95C68.5402 109.353 68.8668 109.68 69.2699 109.68H94.8036C94.9972 109.68 95.1829 109.603 95.3197 109.466C95.4565 109.329 95.5334 109.143 95.5332 108.949V108.949C95.5332 101.809 97.3982 94.7696 101.076 88.6513C103.153 85.1967 104.247 81.2406 104.241 77.2098V77.2098Z" fill="#FDD504"/>
<mask id="mask3_106_430" style="mask-type:luminance" maskUnits="userSpaceOnUse" x="59" y="54" width="46" height="56">
<path fill-rule="evenodd" clip-rule="evenodd" d="M104.241 77.2098C104.241 65.0561 94.4968 55.1806 82.4028 54.9849C74.3799 54.8644 66.9143 59.0756 62.8677 66.0043C58.8212 72.933 58.8213 81.5044 62.868 88.4329C66.5193 94.6673 68.5404 101.723 68.5404 108.95V108.95C68.5402 109.353 68.8668 109.68 69.2699 109.68H94.8036C94.9972 109.68 95.1829 109.603 95.3197 109.466C95.4565 109.329 95.5334 109.143 95.5332 108.949V108.949C95.5332 101.809 97.3982 94.7696 101.076 88.6513C103.153 85.1967 104.247 81.2406 104.241 77.2098V77.2098Z" fill="white"/>
</mask>
<g mask="url(#mask3_106_430)">
<path d="M67.0945 58.3715C43.5874 84.0433 81.3413 111.814 100.812 109.457C120.282 107.1 72.7933 125.879 72.7933 125.879L52.6383 116.109L45.0121 79.7455" fill="#FCB006"/>
</g>
<path fill-rule="evenodd" clip-rule="evenodd" d="M104.241 77.2098C104.241 65.0561 94.4968 55.1806 82.4028 54.9849C74.3799 54.8644 66.9143 59.0756 62.8677 66.0043C58.8212 72.933 58.8213 81.5044 62.868 88.4329C66.5193 94.6673 68.5404 101.723 68.5404 108.95V108.95C68.5402 109.353 68.8668 109.68 69.2699 109.68H94.8036C94.9972 109.68 95.1829 109.603 95.3197 109.466C95.4565 109.329 95.5334 109.143 95.5332 108.949V108.949C95.5332 101.809 97.3982 94.7696 101.076 88.6513C103.153 85.1967 104.247 81.2406 104.241 77.2098V77.2098Z" stroke="black" stroke-width="1.6" stroke-linecap="round" stroke-linejoin="round"/>
<rect x="69.8564" y="112.622" width="24.3608" height="3.48672" rx="1.59559" fill="white" stroke="black" stroke-width="1.6" stroke-linecap="round" stroke-linejoin="round"/>
<rect x="69.8564" y="117.961" width="24.3608" height="3.48672" rx="1.59559" fill="white" stroke="black" stroke-width="1.6" stroke-linecap="round" stroke-linejoin="round"/>
<rect x="79.5645" y="25.6479" width="4.94456" height="20.6605" rx="2.26517" fill="#FCB006" stroke="black" stroke-width="1.6" stroke-linecap="round" stroke-linejoin="round"/>
<rect x="32" y="78.2137" width="4.94991" height="20.6382" rx="2.26517" transform="rotate(-90 32 78.2137)" fill="#FCB006" stroke="black" stroke-width="1.6" stroke-linecap="round" stroke-linejoin="round"/>
<rect x="111.435" y="78.2137" width="4.94991" height="20.6382" rx="2.26517" transform="rotate(-90 111.435 78.2137)" fill="#FCB006" stroke="black" stroke-width="1.6" stroke-linecap="round" stroke-linejoin="round"/>
<path d="M61.3961 54.781L61.1015 55.0759C60.6772 55.5009 60.1012 55.7397 59.5007 55.7397C58.9001 55.7397 58.3241 55.5009 57.8998 55.0759L46.5081 43.6719C45.624 42.7864 45.624 41.3522 46.5081 40.4667L46.8027 40.1717C47.2271 39.7467 47.803 39.5079 48.4036 39.5079C49.0042 39.5079 49.5801 39.7467 50.0045 40.1717L61.3961 51.5757C62.2803 52.4612 62.2803 53.8955 61.3961 54.781V54.781Z" fill="#FCB006" stroke="black" stroke-width="1.6" stroke-linecap="round" stroke-linejoin="round"/>
<path d="M117.271 40.1717L117.565 40.4667C118.45 41.3522 118.45 42.7864 117.565 43.6719L106.174 55.0759C105.749 55.5009 105.173 55.7397 104.573 55.7397C103.972 55.7397 103.396 55.5009 102.972 55.0759L102.677 54.7809C101.793 53.8955 101.793 52.4613 102.677 51.5758L114.069 40.1718C114.493 39.7468 115.069 39.5079 115.67 39.5079C116.271 39.5079 116.846 39.7467 117.271 40.1717V40.1717Z" fill="#FCB006" stroke="black" stroke-width="1.6" stroke-linecap="round" stroke-linejoin="round"/>
<path d="M94.9736 76.6315C92.647 79.22 90.0876 81.5896 87.3278 83.7103" stroke="black" stroke-width="1.6" stroke-linecap="round" stroke-linejoin="round"/>
<path d="M63.656 174.389C63.656 189.264 75.7016 201.323 90.5607 201.323C93.414 201.321 96.2487 200.863 98.9577 199.967L115.902 205.202C117.791 205.785 119.481 203.859 118.659 202.059L112.886 189.422C115.879 184.981 117.474 179.745 117.465 174.389C117.465 159.514 105.42 147.456 90.5607 147.456C75.7017 147.456 63.656 159.514 63.656 174.389Z" fill="#E43334"/>
<mask id="mask4_106_430" style="mask-type:luminance" maskUnits="userSpaceOnUse" x="63" y="147" width="56" height="59">
<path fill-rule="evenodd" clip-rule="evenodd" d="M63.656 174.389C63.656 189.264 75.7016 201.323 90.5607 201.323C93.414 201.321 96.2487 200.863 98.9577 199.967L115.902 205.202C117.791 205.785 119.481 203.859 118.659 202.059L112.886 189.422C115.879 184.981 117.474 179.745 117.465 174.389C117.465 159.514 105.42 147.456 90.5607 147.456C75.7017 147.456 63.656 159.514 63.656 174.389Z" fill="white"/>
</mask>
<g mask="url(#mask4_106_430)">
<path d="M70.0177 151.668C62.6284 215.173 98.9577 199.967 98.9577 199.967L83.2749 212.127L34.5927 189.282L55.4565 154.259" fill="#C11F27"/>
</g>
<path fill-rule="evenodd" clip-rule="evenodd" d="M63.656 174.389C63.656 189.264 75.7016 201.323 90.5607 201.323C93.414 201.321 96.2487 200.863 98.9577 199.967L115.902 205.202C117.791 205.785 119.481 203.859 118.659 202.059L112.886 189.422C115.879 184.981 117.474 179.745 117.465 174.389C117.465 159.514 105.42 147.456 90.5607 147.456C75.7017 147.456 63.656 159.514 63.656 174.389Z" stroke="black" stroke-width="1.6" stroke-linecap="round" stroke-linejoin="round"/>
<path fill-rule="evenodd" clip-rule="evenodd" d="M93.7385 169.029C93.3485 169.572 92.7526 170.184 91.9509 170.863L91.0654 171.678C90.1534 172.489 89.4699 173.525 89.0829 174.683C88.7053 175.826 88.5164 177.36 88.5164 179.284H92.9069C92.9069 178.107 93.0484 177.15 93.3313 176.414C93.6269 175.661 94.1008 174.991 94.7123 174.462C95.9866 173.353 96.9367 172.47 97.5625 171.813C98.1967 171.144 98.717 170.375 99.1027 169.538C99.5041 168.678 99.7047 167.671 99.7047 166.516C99.7232 165.197 99.3337 163.904 98.5895 162.815C97.8454 161.728 96.8068 160.879 95.4735 160.268C94.1399 159.656 92.6233 159.351 90.9239 159.351C88.5395 159.351 86.5922 159.838 85.082 160.811C83.571 161.785 82.5442 163.188 82.0015 165.022L86.1794 166.89C86.8168 164.581 88.2684 163.426 90.5344 163.426C91.7617 163.426 92.6999 163.765 93.349 164.445C93.9982 165.124 94.3228 165.973 94.3228 166.991C94.3228 167.806 94.128 168.486 93.7385 169.029ZM92.9951 183.104C92.4404 182.572 91.7028 182.306 90.7824 182.306C89.8612 182.306 89.1234 182.573 88.5691 183.104C88.0147 183.636 87.7374 184.343 87.7374 185.226C87.7371 186.109 88.0143 186.817 88.5691 187.349C89.1241 187.881 89.8619 188.147 90.7824 188.147C91.7027 188.146 92.4402 187.88 92.9951 187.349C93.5499 186.817 93.8273 186.11 93.8273 185.226C93.8268 184.344 93.5493 183.636 92.9951 183.104Z" fill="white"/>
<path d="M91.9509 170.863L91.4337 170.252C91.4254 170.259 91.4172 170.267 91.4092 170.274L91.9509 170.863ZM93.7385 169.029L94.3884 169.495L94.3887 169.495L93.7385 169.029ZM91.0654 171.678L91.5972 172.275L91.6071 172.266L91.0654 171.678ZM89.0829 174.683L88.3242 174.429L88.3233 174.432L89.0829 174.683ZM88.5164 179.284H87.7164C87.7164 179.726 88.0746 180.084 88.5164 180.084V179.284ZM92.9069 179.284V180.084C93.3487 180.084 93.7069 179.726 93.7069 179.284L92.9069 179.284ZM93.3313 176.414L92.5866 176.122L92.5846 176.127L93.3313 176.414ZM94.7123 174.462L95.236 175.067L95.2375 175.066L94.7123 174.462ZM97.5625 171.813L98.1418 172.365L98.1431 172.363L97.5625 171.813ZM99.1027 169.538L98.3778 169.2L98.3761 169.203L99.1027 169.538ZM99.7047 166.516L98.9047 166.505V166.516H99.7047ZM98.5895 162.815L99.2501 162.363L99.2495 162.362L98.5895 162.815ZM95.4735 160.268L95.807 159.541L95.8069 159.541L95.4735 160.268ZM90.9239 159.351V158.551H90.9237L90.9239 159.351ZM85.082 160.811L84.6487 160.139L84.6486 160.139L85.082 160.811ZM82.0015 165.022L81.2344 164.795C81.1206 165.179 81.309 165.589 81.675 165.752L82.0015 165.022ZM86.1794 166.89L85.8529 167.62C86.0658 167.715 86.3096 167.713 86.5206 167.613C86.7315 167.514 86.8886 167.327 86.9506 167.103L86.1794 166.89ZM90.5344 163.426V164.226H90.5345L90.5344 163.426ZM93.349 164.445L92.7707 164.997L92.7707 164.998L93.349 164.445ZM94.3228 166.991H93.5228V166.991L94.3228 166.991ZM90.7824 182.306V181.506H90.7819L90.7824 182.306ZM92.9951 183.104L93.5491 182.527L93.5489 182.527L92.9951 183.104ZM88.5691 183.104L88.0154 182.527L88.0154 182.527L88.5691 183.104ZM87.7374 185.226L88.5374 185.227V185.226H87.7374ZM88.5691 187.349L88.0154 187.926L88.0155 187.926L88.5691 187.349ZM90.7824 188.147V188.947H90.7829L90.7824 188.147ZM92.9951 187.349L93.5485 187.926L93.5486 187.926L92.9951 187.349ZM93.8273 185.226H94.6273V185.226L93.8273 185.226ZM92.468 171.473C93.2948 170.773 93.945 170.113 94.3884 169.495L93.0886 168.562C92.752 169.031 92.2104 169.594 91.4337 170.252L92.468 171.473ZM91.6071 172.266L92.4926 171.452L91.4092 170.274L90.5237 171.089L91.6071 172.266ZM89.8417 174.936C90.1844 173.911 90.7896 172.994 91.5971 172.275L90.5336 171.08C89.5173 171.984 88.7555 173.139 88.3242 174.429L89.8417 174.936ZM89.3164 179.284C89.3164 177.4 89.5027 175.962 89.8426 174.933L88.3233 174.432C87.9078 175.69 87.7164 177.319 87.7164 179.284H89.3164ZM92.9069 178.484H88.5164V180.084H92.9069V178.484ZM92.5846 176.127C92.2536 176.988 92.1069 178.052 92.1069 179.284L93.7069 179.284C93.7069 178.161 93.8432 177.312 94.078 176.701L92.5846 176.127ZM94.1887 173.857C93.4793 174.471 92.9295 175.249 92.5866 176.122L94.076 176.707C94.3243 176.074 94.7223 175.512 95.236 175.067L94.1887 173.857ZM96.9832 171.261C96.3834 171.891 95.4557 172.755 94.1872 173.859L95.2375 175.066C96.5175 173.952 97.4899 173.049 98.1418 172.365L96.9832 171.261ZM98.3761 169.203C98.027 169.961 97.556 170.657 96.9819 171.263L98.1431 172.363C98.8375 171.631 99.4071 170.79 99.8294 169.873L98.3761 169.203ZM98.9047 166.516C98.9047 167.579 98.7202 168.466 98.3778 169.2L99.8277 169.876C100.288 168.89 100.505 167.763 100.505 166.516H98.9047ZM97.9289 163.266C98.5802 164.219 98.921 165.35 98.9048 166.505L100.505 166.527C100.525 165.043 100.087 163.589 99.2501 162.363L97.9289 163.266ZM95.14 160.995C96.357 161.553 97.2764 162.313 97.9295 163.267L99.2495 162.362C98.4145 161.143 97.2566 160.206 95.807 159.541L95.14 160.995ZM90.9239 160.151C92.5264 160.151 93.9264 160.439 95.1402 160.995L95.8069 159.541C94.3533 158.874 92.7202 158.551 90.9239 158.551V160.151ZM85.5153 161.484C86.8605 160.617 88.6441 160.151 90.924 160.151L90.9237 158.551C88.4349 158.551 86.324 159.059 84.6487 160.139L85.5153 161.484ZM82.7686 165.249C83.2607 163.586 84.1761 162.347 85.5153 161.484L84.6486 160.139C82.9659 161.223 81.8276 162.79 81.2344 164.795L82.7686 165.249ZM86.506 166.159L82.3281 164.292L81.675 165.752L85.8529 167.62L86.506 166.159ZM90.5344 162.626C89.2618 162.626 88.1448 162.953 87.2482 163.666C86.3558 164.376 85.7588 165.407 85.4083 166.677L86.9506 167.103C87.2374 166.064 87.6848 165.363 88.2441 164.918C88.7991 164.477 89.541 164.226 90.5344 164.226V162.626ZM93.9274 163.892C93.0849 163.01 91.9099 162.626 90.5342 162.626L90.5345 164.226C91.6134 164.226 92.3149 164.52 92.7707 164.997L93.9274 163.892ZM95.1228 166.991C95.1228 165.786 94.7314 164.733 93.9273 163.892L92.7707 164.998C93.265 165.515 93.5228 166.16 93.5228 166.991H95.1228ZM94.3887 169.495C94.8953 168.788 95.1228 167.936 95.1228 166.991L93.5228 166.991C93.5228 167.677 93.3607 168.183 93.0884 168.563L94.3887 169.495ZM90.7824 183.106C91.5398 183.106 92.0642 183.32 92.4412 183.681L93.5489 182.527C92.8167 181.824 91.8659 181.506 90.7824 181.506V183.106ZM89.1228 183.681C89.4995 183.32 90.0241 183.106 90.7829 183.106L90.7819 181.506C89.6982 181.507 88.7474 181.825 88.0154 182.527L89.1228 183.681ZM88.5374 185.226C88.5374 184.526 88.7497 184.039 89.1229 183.681L88.0154 182.527C87.2796 183.232 86.9374 184.161 86.9374 185.226H88.5374ZM89.1229 186.771C88.7492 186.413 88.5371 185.927 88.5374 185.227L86.9374 185.226C86.937 186.292 87.2793 187.22 88.0154 187.926L89.1229 186.771ZM90.7824 187.347C90.0249 187.347 89.5003 187.133 89.1228 186.771L88.0155 187.926C88.748 188.628 89.6988 188.947 90.7824 188.947V187.347ZM92.4416 186.771C92.0642 187.133 91.5394 187.346 90.7819 187.347L90.7829 188.947C91.8659 188.946 92.8162 188.628 93.5485 187.926L92.4416 186.771ZM93.0273 185.226C93.0273 185.927 92.815 186.413 92.4415 186.771L93.5486 187.926C94.2848 187.221 94.6273 186.292 94.6273 185.226H93.0273ZM92.441 183.681C92.8145 184.04 93.0269 184.526 93.0273 185.227L94.6273 185.226C94.6266 184.161 94.2842 183.233 93.5491 182.527L92.441 183.681Z" fill="black"/>
<path d="M112.995 182.076L108.684 184.903" stroke="black" stroke-width="1.6" stroke-linecap="round" stroke-linejoin="round"/>
<path d="M77.4268 161.789L76.4542 162.45" stroke="black" stroke-width="1.6" stroke-linecap="round" stroke-linejoin="round"/>
<path d="M214.386 107.878C214.387 107.005 214.041 106.168 213.424 105.551C212.807 104.934 211.971 104.587 211.098 104.586H141.589C140.716 104.587 139.88 104.934 139.263 105.551C138.647 106.168 138.3 107.005 138.301 107.878V111.915H214.386V107.878Z" fill="white" stroke="black" stroke-width="1.6" stroke-linecap="round" stroke-linejoin="round"/>
<path d="M138.301 111.916V152.214C138.3 153.086 138.647 153.923 139.263 154.54C139.88 155.158 140.716 155.505 141.589 155.505H211.098C211.971 155.505 212.807 155.158 213.424 154.54C214.041 153.923 214.387 153.086 214.386 152.214V111.916H138.301Z" fill="white" stroke="black" stroke-width="1.6" stroke-linecap="round" stroke-linejoin="round"/>
<ellipse cx="142.434" cy="108.163" rx="0.91078" ry="0.91177" fill="#E43334" stroke="black" stroke-width="1.6" stroke-linecap="round" stroke-linejoin="round"/>
<ellipse cx="146.261" cy="108.163" rx="0.91078" ry="0.91177" fill="#FDD504" stroke="black" stroke-width="1.6" stroke-linecap="round" stroke-linejoin="round"/>
<ellipse cx="150.089" cy="108.163" rx="0.91078" ry="0.91177" fill="#1AB995" stroke="black" stroke-width="1.6" stroke-linecap="round" stroke-linejoin="round"/>
<rect x="144.287" y="115.976" width="64.1128" height="34.7688" rx="1.37756" fill="#7A24EA"/>
<mask id="mask5_106_430" style="mask-type:luminance" maskUnits="userSpaceOnUse" x="144" y="115" width="65" height="36">
<rect x="144.287" y="115.976" width="64.1128" height="34.7688" rx="1.37756" fill="white"/>
</mask>
<g mask="url(#mask5_106_430)">
<path d="M206.84 112.451C208.4 149.366 135.665 152.242 135.665 152.242L217.953 165.326L223.33 130.046" fill="#6B1AD3"/>
</g>
<rect x="144.287" y="115.976" width="64.1128" height="34.7688" rx="1.37756" stroke="black" stroke-width="1.6" stroke-linecap="round" stroke-linejoin="round"/>
<ellipse opacity="0.36" cx="176.344" cy="131.758" rx="10.1685" ry="10.1922" fill="white" stroke="black" stroke-width="1.6" stroke-linecap="round" stroke-linejoin="round"/>
<path d="M173.51 131.758V128.003C173.51 127.775 173.631 127.564 173.829 127.45C174.026 127.336 174.269 127.336 174.467 127.45L177.711 129.327L180.956 131.205C181.153 131.32 181.275 131.53 181.275 131.758C181.275 131.987 181.153 132.197 180.956 132.312L177.711 134.189L174.467 136.067C174.269 136.181 174.026 136.181 173.829 136.067C173.631 135.953 173.51 135.742 173.51 135.514V131.758Z" fill="white" stroke="black" stroke-width="1.6" stroke-linecap="round" stroke-linejoin="round"/>
<path d="M154.974 125.324C154.393 126.002 153.68 126.555 152.879 126.949" stroke="black" stroke-width="1.6" stroke-linecap="round" stroke-linejoin="round"/>
<rect x="58.6777" y="256.422" width="91.962" height="16.8882" fill="#FDD504"/>
<mask id="mask6_106_430" style="mask-type:luminance" maskUnits="userSpaceOnUse" x="58" y="256" width="93" height="18">
<rect x="58.6777" y="256.422" width="91.962" height="16.8882" fill="white"/>
</mask>
<g mask="url(#mask6_106_430)">
<rect x="70.1987" y="253.538" width="11.7267" height="22.0371" fill="#E43334" stroke="black" stroke-width="1.6" stroke-linecap="round" stroke-linejoin="round"/>
<path d="M93.5345 255.606C89.6338 259.122 158.663 262.642 159.898 270.416C161.132 278.189 155.468 249.96 155.468 249.96L146.473 250.646" fill="#FCB006"/>
</g>
<rect x="58.6777" y="256.422" width="91.962" height="16.8882" stroke="black" stroke-width="1.6" stroke-linecap="round" stroke-linejoin="round"/>
<rect x="82.5453" y="217.016" width="91.962" height="16.8882" fill="#E43334"/>
<mask id="mask7_106_430" style="mask-type:luminance" maskUnits="userSpaceOnUse" x="82" y="217" width="93" height="17">
<rect x="82.5453" y="217.016" width="91.962" height="16.8882" fill="white"/>
</mask>
<g mask="url(#mask7_106_430)">
<rect x="162.986" y="236.17" width="11.7267" height="22.0371" transform="rotate(-180 162.986 236.17)" fill="white" stroke="black" stroke-width="1.6" stroke-linecap="round" stroke-linejoin="round"/>
<rect x="148.245" y="236.17" width="2.19447" height="22.0371" transform="rotate(-180 148.245 236.17)" fill="white" stroke="black" stroke-width="1.6" stroke-linecap="round" stroke-linejoin="round"/>
<path d="M81.5416 230.288C78.5243 232.897 140.655 232.897 139.284 233.996C137.912 235.094 84.0104 238.115 84.0104 238.115L79.0729 230.975" fill="#C11F27"/>
</g>
<rect x="82.5453" y="217.016" width="91.962" height="16.8882" stroke="black" stroke-width="1.6" stroke-linecap="round" stroke-linejoin="round"/>
<path d="M169.275 244.476H87.7775C90.9512 247.308 87.7775 255.443 87.7775 255.443H169.275C169.275 255.443 166.101 247.308 169.275 244.476Z" fill="white"/>
<mask id="mask8_106_430" style="mask-type:luminance" maskUnits="userSpaceOnUse" x="87" y="244" width="83" height="12">
<path fill-rule="evenodd" clip-rule="evenodd" d="M169.275 244.476H87.7775C90.9512 247.308 87.7775 255.443 87.7775 255.443H169.275C169.275 255.443 166.101 247.308 169.275 244.476Z" fill="white"/>
</mask>
<g mask="url(#mask8_106_430)">
<path d="M86.6507 248.721L88.2961 248.75L116.482 249.236L85.0048 249.96" fill="#D6DCF2"/>
<path d="M181.945 251.865L180.3 251.837L152.114 251.35L183.591 250.626" fill="#D6DCF2"/>
</g>
<path fill-rule="evenodd" clip-rule="evenodd" d="M169.275 244.476H87.7775C90.9512 247.308 87.7775 255.443 87.7775 255.443H169.275C169.275 255.443 166.101 247.308 169.275 244.476Z" stroke="black" stroke-width="1.6" stroke-linecap="round" stroke-linejoin="round"/>
<rect x="84.6027" y="242.417" width="87.8474" height="3.08931" fill="#1AB995" stroke="black" stroke-width="1.6" stroke-linecap="round" stroke-linejoin="round"/>
<rect x="84.6027" y="253.333" width="87.8474" height="3.08931" fill="#1AB995" stroke="black" stroke-width="1.6" stroke-linecap="round" stroke-linejoin="round"/>
<rect x="62.1066" y="238.161" width="97.7911" height="5.2175" fill="#7A24EA"/>
<mask id="mask9_106_430" style="mask-type:luminance" maskUnits="userSpaceOnUse" x="62" y="238" width="98" height="6">
<rect x="62.1066" y="238.161" width="97.7911" height="5.2175" fill="white"/>
</mask>
<g mask="url(#mask9_106_430)">
<path d="M111.002 237.291C97.4517 241.616 160.817 239.305 162.669 240.769C164.52 242.234 163.903 236.513 163.903 236.513L145.799 234.408" fill="#6B1AD3"/>
</g>
<rect x="62.1066" y="238.161" width="97.7911" height="5.2175" stroke="black" stroke-width="1.6" stroke-linecap="round" stroke-linejoin="round"/>
<rect x="70.0616" y="233.904" width="97.7911" height="5.2175" fill="#1A80FD" stroke="black" stroke-width="1.6" stroke-linecap="round" stroke-linejoin="round"/>
<path d="M115.122 266.283L117.144 267.891" stroke="black" stroke-width="1.6" stroke-linecap="round" stroke-linejoin="round"/>
<path d="M109.907 225.035L113.534 224.61" stroke="black" stroke-width="1.6" stroke-linecap="round" stroke-linejoin="round"/>
</g>
<defs>
<filter id="filter0_d_106_430" x="0.200012" y="0.8479" width="324.722" height="317.262" filterUnits="userSpaceOnUse" color-interpolation-filters="sRGB">
<feFlood flood-opacity="0" result="BackgroundImageFix"/>
<feColorMatrix in="SourceAlpha" type="matrix" values="0 0 0 0 0 0 0 0 0 0 0 0 0 0 0 0 0 0 127 0" result="hardAlpha"/>
<feOffset dx="3" dy="10"/>
<feGaussianBlur stdDeviation="17"/>
<feComposite in2="hardAlpha" operator="out"/>
<feColorMatrix type="matrix" values="0 0 0 0 0 0 0 0 0 0 0 0 0 0 0 0 0 0 0.25 0"/>
<feBlend mode="normal" in2="BackgroundImageFix" result="effect1_dropShadow_106_430"/>
<feBlend mode="normal" in="SourceGraphic" in2="effect1_dropShadow_106_430" result="shape"/>
</filter>
</defs>
</svg>
