<svg width="379" height="304" viewBox="0 0 379 304" fill="none" xmlns="http://www.w3.org/2000/svg">
<g filter="url(#filter0_d_106_973)">
<path fill-rule="evenodd" clip-rule="evenodd" d="M297.183 186.019H307.316H310.229L307.841 201.476H299.572L297.183 186.019ZM297.709 186.522L299.942 200.973H301.34L300.139 186.522H297.709ZM301.783 200.973L300.582 186.522H306.831L305.63 200.973H301.783ZM306.073 200.973H307.471L309.704 186.522H307.274L306.073 200.973Z" fill="#FCB006"/>
<path d="M297.183 186.019V185.219C296.95 185.219 296.728 185.321 296.576 185.498C296.424 185.675 296.357 185.91 296.393 186.141L297.183 186.019ZM310.229 186.019L311.02 186.141C311.056 185.91 310.989 185.675 310.837 185.498C310.685 185.321 310.463 185.219 310.229 185.219V186.019ZM307.841 201.476V202.276C308.236 202.276 308.571 201.988 308.632 201.598L307.841 201.476ZM299.572 201.476L298.781 201.598C298.841 201.988 299.177 202.276 299.572 202.276V201.476ZM299.942 200.973L299.151 201.095C299.211 201.485 299.547 201.773 299.942 201.773V200.973ZM297.709 186.522V185.722C297.475 185.722 297.253 185.824 297.101 186.001C296.949 186.178 296.882 186.413 296.918 186.644L297.709 186.522ZM301.34 200.973V201.773C301.563 201.773 301.777 201.679 301.928 201.515C302.08 201.35 302.155 201.13 302.137 200.907L301.34 200.973ZM300.139 186.522L300.936 186.455C300.901 186.041 300.555 185.722 300.139 185.722V186.522ZM300.582 186.522V185.722C300.358 185.722 300.144 185.815 299.993 185.98C299.841 186.144 299.766 186.365 299.784 186.588L300.582 186.522ZM301.783 200.973L300.985 201.039C301.02 201.454 301.366 201.773 301.783 201.773V200.973ZM306.831 186.522L307.628 186.588C307.647 186.365 307.571 186.144 307.42 185.98C307.268 185.815 307.055 185.722 306.831 185.722V186.522ZM305.63 200.973V201.773C306.046 201.773 306.393 201.454 306.427 201.039L305.63 200.973ZM307.471 200.973V201.773C307.865 201.773 308.201 201.485 308.261 201.095L307.471 200.973ZM306.073 200.973L305.276 200.907C305.257 201.13 305.333 201.35 305.484 201.515C305.636 201.679 305.849 201.773 306.073 201.773V200.973ZM309.704 186.522L310.494 186.644C310.53 186.413 310.463 186.178 310.311 186.001C310.159 185.824 309.937 185.722 309.704 185.722V186.522ZM307.274 186.522V185.722C306.858 185.722 306.511 186.041 306.477 186.455L307.274 186.522ZM307.316 185.219H297.183V186.819H307.316V185.219ZM310.229 185.219H307.316V186.819H310.229V185.219ZM308.632 201.598L311.02 186.141L309.439 185.897L307.05 201.354L308.632 201.598ZM299.572 202.276H307.841V200.676H299.572V202.276ZM296.393 186.141L298.781 201.598L300.362 201.354L297.974 185.897L296.393 186.141ZM300.732 200.851L298.499 186.399L296.918 186.644L299.151 201.095L300.732 200.851ZM301.34 200.173H299.942V201.773H301.34V200.173ZM299.341 186.588L300.542 201.039L302.137 200.907L300.936 186.455L299.341 186.588ZM297.709 187.322H300.139V185.722H297.709V187.322ZM299.784 186.588L300.985 201.039L302.58 200.907L301.379 186.455L299.784 186.588ZM306.831 185.722H300.582V187.322H306.831V185.722ZM306.427 201.039L307.628 186.588L306.034 186.455L304.833 200.907L306.427 201.039ZM301.783 201.773H305.63V200.173H301.783V201.773ZM307.471 200.173H306.073V201.773H307.471V200.173ZM308.913 186.399L306.68 200.851L308.261 201.095L310.494 186.644L308.913 186.399ZM307.274 187.322H309.704V185.722H307.274V187.322ZM306.87 201.039L308.071 186.588L306.477 186.455L305.276 200.907L306.87 201.039Z" fill="black"/>
<path d="M303.706 100.639C223.747 100.639 297.167 185.588 297.167 185.588H310.246C310.246 185.588 383.665 100.639 303.706 100.639Z" fill="#1AB995"/>
<mask id="mask0_106_973" style="mask-type:luminance" maskUnits="userSpaceOnUse" x="266" y="100" width="76" height="86">
<path fill-rule="evenodd" clip-rule="evenodd" d="M303.706 100.639C223.747 100.639 297.167 185.588 297.167 185.588H310.246C310.246 185.588 383.665 100.639 303.706 100.639Z" fill="white"/>
</mask>
<g mask="url(#mask0_106_973)">
<path d="M340.572 115.44C343.911 117.699 345.572 121.739 344.785 125.693C348.589 123.209 350.242 118.475 348.812 114.163C347.383 109.852 343.228 107.044 338.694 107.325C334.16 107.606 330.384 110.905 329.497 115.361C332.867 113.152 337.234 113.184 340.572 115.44V115.44Z" fill="#FDD504" stroke="black" stroke-width="1.6" stroke-linecap="round" stroke-linejoin="round"/>
<path d="M269.508 148.548C272.847 150.807 274.508 154.847 273.722 158.801C277.525 156.317 279.178 151.583 277.749 147.271C276.319 142.96 272.164 140.152 267.63 140.433C263.096 140.714 259.32 144.013 258.433 148.469C261.803 146.26 266.17 146.292 269.508 148.548Z" fill="#FDD504" stroke="black" stroke-width="1.6" stroke-linecap="round" stroke-linejoin="round"/>
</g>
<path fill-rule="evenodd" clip-rule="evenodd" d="M303.706 100.639C223.747 100.639 297.167 185.588 297.167 185.588H310.246C310.246 185.588 383.665 100.639 303.706 100.639Z" stroke="black" stroke-width="1.6" stroke-linecap="round" stroke-linejoin="round"/>
<path d="M303.706 100.639C250.583 100.639 299.362 185.588 299.362 185.588H308.051C308.051 185.588 356.83 100.639 303.706 100.639Z" fill="white"/>
<mask id="mask1_106_973" style="mask-type:luminance" maskUnits="userSpaceOnUse" x="278" y="100" width="51" height="86">
<path fill-rule="evenodd" clip-rule="evenodd" d="M303.706 100.639C250.583 100.639 299.362 185.588 299.362 185.588H308.051C308.051 185.588 356.83 100.639 303.706 100.639Z" fill="white"/>
</mask>
<g mask="url(#mask1_106_973)">
<path d="M283.685 107.285L286.871 113.747L293.994 114.783L288.84 119.812L290.056 126.914L283.685 123.561L277.314 126.914L278.531 119.812L273.377 114.783L280.5 113.747L283.685 107.285V107.285Z" fill="#FDD504" stroke="black" stroke-width="1.6" stroke-linecap="round" stroke-linejoin="round"/>
<path d="M321.159 151.439C321.158 147.408 323.574 143.769 327.29 142.206C323.101 140.45 318.255 141.733 315.485 145.333C312.714 148.932 312.714 153.945 315.485 157.545C318.255 161.144 323.101 162.428 327.29 160.672C323.574 159.109 321.158 155.47 321.159 151.439Z" fill="#FDD504" stroke="black" stroke-width="1.6" stroke-linecap="round" stroke-linejoin="round"/>
</g>
<path fill-rule="evenodd" clip-rule="evenodd" d="M303.706 100.639C250.583 100.639 299.362 185.588 299.362 185.588H308.051C308.051 185.588 356.83 100.639 303.706 100.639Z" stroke="black" stroke-width="1.6" stroke-linecap="round" stroke-linejoin="round"/>
<path d="M303.706 100.639C282.895 100.639 302.004 185.588 302.004 185.588H305.408C305.408 185.588 324.518 100.639 303.706 100.639Z" fill="#1AB995" stroke="black" stroke-width="1.6" stroke-linecap="round" stroke-linejoin="round"/>
<path d="M306.001 215.326H301.412C299.08 215.326 297.19 213.436 297.19 211.104V200.542H310.222V211.104C310.222 212.224 309.778 213.298 308.986 214.089C308.194 214.881 307.121 215.326 306.001 215.326Z" fill="#FCB006"/>
<mask id="mask2_106_973" style="mask-type:luminance" maskUnits="userSpaceOnUse" x="297" y="200" width="14" height="16">
<path fill-rule="evenodd" clip-rule="evenodd" d="M306.001 215.326H301.412C299.08 215.326 297.19 213.436 297.19 211.104V200.542H310.222V211.104C310.222 212.224 309.778 213.298 308.986 214.089C308.194 214.881 307.121 215.326 306.001 215.326Z" fill="white"/>
</mask>
<g mask="url(#mask2_106_973)">
<path d="M295.152 202.703C310.581 202.116 310.438 210.134 309.704 215.918C308.97 221.702 312.629 196.542 312.629 196.542L300.582 198.566" fill="#FDD504"/>
</g>
<path fill-rule="evenodd" clip-rule="evenodd" d="M306.001 215.326H301.412C299.08 215.326 297.19 213.436 297.19 211.104V200.542H310.222V211.104C310.222 212.224 309.778 213.298 308.986 214.089C308.194 214.881 307.121 215.326 306.001 215.326Z" stroke="black" stroke-width="1.6" stroke-linecap="round" stroke-linejoin="round"/>
<rect x="295.868" y="199.746" width="15.6761" height="2.95671" rx="0.78127" fill="white" stroke="black" stroke-width="1.6" stroke-linecap="round" stroke-linejoin="round"/>
<path d="M312.079 184.167H295.334L297.034 187.237H310.379L312.079 184.167V184.167Z" fill="white" stroke="black" stroke-width="1.6" stroke-linecap="round" stroke-linejoin="round"/>
<path d="M323.526 119.724C324.275 121.478 323.7 123.705 322.195 124.876" stroke="black" stroke-width="1.6" stroke-linecap="round" stroke-linejoin="round"/>
<path d="M301.794 207.384C302.526 208.003 303.459 208.334 304.418 208.314" stroke="black" stroke-width="1.6" stroke-linecap="round" stroke-linejoin="round"/>
<path d="M78.4717 171.56L76.77 161.595L105.667 138.916L78.4717 171.56V171.56Z" fill="#FDD504" stroke="black" stroke-width="1.6" stroke-linecap="round" stroke-linejoin="round"/>
<path d="M84.337 161.741L80.5996 162.769L78.4717 171.56L93.1331 155.238L84.337 161.741V161.741Z" fill="#FDD504" stroke="black" stroke-width="1.6" stroke-linecap="round" stroke-linejoin="round"/>
<path d="M101.28 167.859L80.5996 162.769L105.667 138.916L101.28 167.859V167.859Z" fill="#FCB006" stroke="black" stroke-width="1.6" stroke-linecap="round" stroke-linejoin="round"/>
<path d="M52.154 210.773L52.4631 211.188C54.1243 209.936 55.7093 208.586 57.2094 207.145L56.8518 206.771C55.3674 208.198 53.7986 209.534 52.154 210.773Z" fill="#190000"/>
<path d="M52.1025 192.34L52.1975 192.849C54.2217 192.474 56.268 192.23 58.3236 192.119L58.2953 191.602C56.2173 191.715 54.1487 191.961 52.1025 192.34V192.34Z" fill="#190000"/>
<path d="M41.1714 216.024L41.2563 216.535C43.1138 216.228 45.1047 215.545 47.1743 214.505L46.942 214.042C44.9188 215.059 42.9775 215.726 41.1714 216.024Z" fill="#190000"/>
<path d="M71.8343 187.147C70.8273 188.862 69.7859 190.542 68.7354 192.145C67.3435 191.922 65.9355 191.758 64.5284 191.656L64.492 192.173C66.5451 192.321 68.5866 192.601 70.604 193.01L70.707 192.502C70.2384 192.407 69.767 192.319 69.2929 192.237C70.306 190.686 71.309 189.064 72.2807 187.41L71.8343 187.147Z" fill="#190000"/>
<path d="M61.1143 202.291L61.5042 202.632C62.8173 201.124 64.1334 199.494 65.4152 197.787L65.0011 197.475C63.7274 199.173 62.4194 200.793 61.1143 202.291Z" fill="#190000"/>
<path d="M31.4909 210.935L31 211.1C31.7394 213.299 33.1333 214.946 35.0302 215.863L35.2544 215.397C33.4858 214.542 32.1848 212.999 31.4909 210.935Z" fill="#190000"/>
<path d="M31.3485 204.868L31.8212 205.076C32.5515 203.417 33.7898 201.801 35.5009 200.274L35.1575 199.887C33.3898 201.464 32.1081 203.14 31.3485 204.868Z" fill="#190000"/>
<path d="M46.0622 193.897C44.0828 194.553 42.1617 195.374 40.3189 196.35L40.5634 196.807C42.3802 195.844 44.2743 195.035 46.2258 194.387L46.0622 193.897Z" fill="#190000"/>
<path d="M131.969 216.13L132.072 216.637C134.109 216.22 136.122 215.695 138.104 215.066L137.949 214.573C135.984 215.196 133.988 215.715 131.969 216.13Z" fill="#190000"/>
<path d="M107.543 214.732C109.467 215.533 111.454 216.172 113.485 216.642L113.602 216.138C111.6 215.675 109.64 215.045 107.743 214.253L107.543 214.732Z" fill="#190000"/>
<path d="M119.696 217.033L119.661 217.55C120.581 217.611 121.524 217.642 122.463 217.642C123.586 217.642 124.742 217.597 125.898 217.509L125.858 216.993C123.807 217.152 121.748 217.166 119.696 217.033V217.033Z" fill="#190000"/>
<path d="M77.6331 176.193C76.7281 178.085 75.7917 179.949 74.8503 181.733L75.3069 181.974C76.2523 180.185 77.1917 178.315 78.0997 176.416L77.6331 176.193Z" fill="#190000"/>
<path d="M159.949 203.391C158.302 204.563 156.559 205.708 154.77 206.795L155.039 207.238C156.838 206.144 158.592 204.992 160.248 203.813L159.949 203.391Z" fill="#190000"/>
<path d="M143.755 212.439L143.955 212.917C145.827 212.133 147.727 211.248 149.602 210.284L149.365 209.824C147.503 210.781 145.616 211.661 143.755 212.439Z" fill="#190000"/>
<path d="M96.9831 208.154C98.5625 209.511 100.241 210.749 102.004 211.858L102.279 211.419C100.537 210.324 98.8791 209.101 97.3184 207.76L96.9831 208.154Z" fill="#190000"/>
<path d="M76.5564 194.629C78.502 195.298 80.4011 196.097 82.241 197.018L82.4734 196.555C80.6125 195.623 78.6918 194.816 76.724 194.139L76.5564 194.629Z" fill="#190000"/>
<path d="M87.5611 200.139C89.2637 201.296 90.8906 202.561 92.4317 203.926L92.7751 203.538C91.2168 202.159 89.5725 200.88 87.852 199.71L87.5611 200.139Z" fill="#190000"/>
<path d="M76.77 161.595L65.794 158.565L105.667 138.916L76.77 161.595V161.595Z" fill="#FCB006" stroke="black" stroke-width="1.6" stroke-linecap="round" stroke-linejoin="round"/>
<path d="M98.9379 156.274C98.2068 157.017 97.3204 157.59 96.3421 157.952" stroke="black" stroke-width="1.6" stroke-linecap="round" stroke-linejoin="round"/>
<path d="M101.944 49.3835L115.902 31.0715L146.203 54.2201C147.562 55.2591 147.823 57.2024 146.786 58.5629L142.305 64.4413L136.583 71.9486C136.085 72.6018 135.348 73.0303 134.535 73.1398C133.721 73.2492 132.897 73.0306 132.245 72.5321L101.944 49.3835Z" fill="#FDD504"/>
<mask id="mask3_106_973" style="mask-type:luminance" maskUnits="userSpaceOnUse" x="101" y="31" width="47" height="43">
<path fill-rule="evenodd" clip-rule="evenodd" d="M101.944 49.3835L115.902 31.0715L146.203 54.2201C147.562 55.2591 147.823 57.2024 146.786 58.5629L142.305 64.4413L136.583 71.9486C136.085 72.6018 135.348 73.0303 134.535 73.1398C133.721 73.2492 132.897 73.0306 132.245 72.5321L101.944 49.3835Z" fill="white"/>
</mask>
<g mask="url(#mask3_106_973)">
<path d="M109.074 35.4666L111.237 32.6281L140.389 54.8983L138.225 57.7368L109.074 35.4666V35.4666Z" fill="white" stroke="black" stroke-width="1.6" stroke-linecap="round" stroke-linejoin="round"/>
<path d="M105.182 40.572L107.345 37.7335L136.497 60.0037L134.333 62.8422L105.182 40.572V40.572Z" fill="white" stroke="black" stroke-width="1.6" stroke-linecap="round" stroke-linejoin="round"/>
<path d="M101.448 45.4698L103.612 42.6313L132.763 64.9015L130.6 67.74L101.448 45.4698V45.4698Z" fill="white" stroke="black" stroke-width="1.6" stroke-linecap="round" stroke-linejoin="round"/>
<path d="M125.33 72.0414L143.997 47.5525L153.607 54.8941L134.94 79.383L125.33 72.0414V72.0414Z" fill="#E43334"/>
<mask id="mask4_106_973" style="mask-type:luminance" maskUnits="userSpaceOnUse" x="125" y="47" width="29" height="33">
<path fill-rule="evenodd" clip-rule="evenodd" d="M125.33 72.0414L143.997 47.5525L153.607 54.8941L134.94 79.383L125.33 72.0414V72.0414Z" fill="white"/>
</mask>
<g mask="url(#mask4_106_973)">
<path d="M137.095 74.5375C128.306 68.1376 133.453 61.8345 142.551 50.5181C151.649 39.2017 131.915 52.9161 131.915 52.9161L121.947 71.5636L129.324 75.0928L131.989 75.518" fill="#C11F27"/>
</g>
<path fill-rule="evenodd" clip-rule="evenodd" d="M125.33 72.0414L143.997 47.5525L153.607 54.8941L134.94 79.383L125.33 72.0414V72.0414Z" stroke="black" stroke-width="1.6" stroke-linecap="round" stroke-linejoin="round"/>
<path d="M127.147 69.658L144.147 47.3556L141.985 45.7037L124.984 68.0061L127.147 69.658V69.658Z" fill="#1A80FD" stroke="black" stroke-width="1.6" stroke-linecap="round" stroke-linejoin="round"/>
</g>
<path fill-rule="evenodd" clip-rule="evenodd" d="M101.944 49.3835L115.902 31.0715L146.203 54.2201C147.562 55.2591 147.823 57.2024 146.786 58.5629L142.305 64.4413L136.583 71.9486C136.085 72.6018 135.348 73.0303 134.535 73.1398C133.721 73.2492 132.897 73.0306 132.245 72.5321L101.944 49.3835Z" stroke="black" stroke-width="1.6" stroke-linecap="round" stroke-linejoin="round"/>
<path d="M96.1679 30.4831V30.4831C96.6693 29.8253 97.4104 29.4434 98.0725 29.5017L115.902 31.0714L101.944 49.3834L95.725 32.5813C95.4941 31.9574 95.6664 31.1409 96.1679 30.4831Z" fill="#FACCC4"/>
<mask id="mask5_106_973" style="mask-type:luminance" maskUnits="userSpaceOnUse" x="95" y="29" width="21" height="21">
<path fill-rule="evenodd" clip-rule="evenodd" d="M96.1679 30.4831V30.4831C96.6693 29.8253 97.4104 29.4434 98.0725 29.5017L115.902 31.0714L101.944 49.3834L95.725 32.5813C95.4941 31.9574 95.6664 31.1409 96.1679 30.4831Z" fill="white"/>
</mask>
<g mask="url(#mask5_106_973)">
<path d="M98.153 48.0943C113.063 29.5654 109.888 30.542 105.791 30.1813C101.694 29.8206 123.007 27.8707 123.007 27.8707C123.007 27.8707 122.735 30.4974 122.507 30.796C122.28 31.0946 101.768 52.431 101.768 52.431L95.8378 46.798" fill="#ED707B"/>
<path d="M97.2673 51.71L116.868 25.9966L120.537 28.7998L100.937 54.5131L97.2673 51.71V51.71Z" fill="#FCB006" stroke="black" stroke-width="1.6" stroke-linecap="round" stroke-linejoin="round"/>
<ellipse cx="94.5857" cy="27.4808" rx="10.0875" ry="8.24555" transform="rotate(-52.8054 94.5857 27.4808)" fill="#485065" stroke="black" stroke-width="1.6" stroke-linecap="round" stroke-linejoin="round"/>
</g>
<path fill-rule="evenodd" clip-rule="evenodd" d="M96.1679 30.4831V30.4831C96.6693 29.8253 97.4104 29.4434 98.0725 29.5017L115.902 31.0714L101.944 49.3834L95.725 32.5813C95.4941 31.9574 95.6664 31.1409 96.1679 30.4831Z" stroke="black" stroke-width="1.6" stroke-linecap="round" stroke-linejoin="round"/>
<path d="M100.101 37.8647C100.278 38.5026 100.298 39.174 100.157 39.8209" stroke="black" stroke-width="1.6" stroke-linecap="round" stroke-linejoin="round"/>
<path d="M213.08 50.6464L243.201 25.1624L248.478 31.3617L225.562 57.9963L213.08 50.6464V50.6464Z" fill="#FCB006" stroke="black" stroke-width="1.6" stroke-linecap="round" stroke-linejoin="round"/>
<path d="M224.735 65.2414L225.268 68.9361L242.991 74.8322L240.22 38.3717L224.735 65.2414V65.2414Z" fill="#D6DCF2"/>
<path d="M217.431 58.083L244.289 26.049L245.711 29.4527L244.379 44.063L243.881 35.0229L225.268 68.9361C225.268 68.9361 218.466 63.5675 217.431 58.083Z" fill="white"/>
<mask id="mask6_106_973" style="mask-type:luminance" maskUnits="userSpaceOnUse" x="217" y="26" width="29" height="43">
<path fill-rule="evenodd" clip-rule="evenodd" d="M217.431 58.083L244.289 26.049L245.711 29.4527L244.379 44.063L243.881 35.0229L225.268 68.9361C225.268 68.9361 218.466 63.5675 217.431 58.083Z" fill="white"/>
</mask>
<g mask="url(#mask6_106_973)">
<path d="M216.093 64.1314L235.662 40.2401L215.455 66.0021L219.844 66.7227L230.893 51.6486L220.732 67.8097L211.312 67.6909" fill="#D6DCF2"/>
</g>
<path fill-rule="evenodd" clip-rule="evenodd" d="M217.431 58.083L244.289 26.049L245.711 29.4527L244.379 44.063L243.881 35.0229L225.268 68.9361C225.268 68.9361 218.466 63.5675 217.431 58.083Z" stroke="black" stroke-width="1.6" stroke-linecap="round" stroke-linejoin="round"/>
<path d="M285.451 51.0667L287.439 50.045C287.439 50.045 288.381 48.5685 286.604 47.4774L243.201 25.1624L244.308 26.247L245.456 28.6742L245.564 31.0578L247.668 35.8048L285.451 51.0667Z" fill="#E43334" stroke="black" stroke-width="1.6" stroke-linecap="round" stroke-linejoin="round"/>
<path d="M245.675 33.7702L245.167 29.7737C245.167 29.7737 245.51 25.9965 242.469 25.7822L243.201 25.1624C243.201 25.1624 246.499 26.2784 245.852 30.1023L245.675 33.7702Z" fill="#485065" stroke="black" stroke-width="1.6" stroke-linecap="round" stroke-linejoin="round"/>
<path d="M226.577 73.6093L245.167 29.7738L287.438 50.0451L272.621 88.1391L226.577 73.6093V73.6093Z" fill="#FDD504"/>
<mask id="mask7_106_973" style="mask-type:luminance" maskUnits="userSpaceOnUse" x="226" y="29" width="62" height="60">
<path fill-rule="evenodd" clip-rule="evenodd" d="M226.577 73.6093L245.167 29.7738L287.438 50.0451L272.621 88.1391L226.577 73.6093V73.6093Z" fill="white"/>
</mask>
<g mask="url(#mask7_106_973)">
<path d="M247.267 41.4892L238.458 67.7357C238.364 68.0168 238.385 68.324 238.518 68.589C238.651 68.854 238.885 69.0549 239.167 69.1472L245.104 71.0864C245.686 71.2766 246.313 70.9586 246.504 70.376L254.935 44.6597C255.113 44.1174 254.851 43.5283 254.33 43.2964L248.77 40.8268C248.484 40.6999 248.158 40.6995 247.872 40.8256C247.586 40.9516 247.366 41.1926 247.267 41.4892V41.4892Z" fill="#FCB006"/>
<path d="M241.643 78.3635C234.998 74.9174 270.492 91.2197 278.531 71.9448C281.282 65.3488 280.248 98.4462 280.248 98.4462L246.554 87.1836" fill="#FCB006"/>
</g>
<path fill-rule="evenodd" clip-rule="evenodd" d="M226.577 73.6093L245.167 29.7738L287.438 50.0451L272.621 88.1391L226.577 73.6093V73.6093Z" stroke="black" stroke-width="1.6" stroke-linecap="round" stroke-linejoin="round"/>
<path d="M267.969 67.9186C267.488 68.8459 266.871 69.6957 266.137 70.4394" stroke="black" stroke-width="1.6" stroke-linecap="round" stroke-linejoin="round"/>
<path d="M233.195 48.2345L231.152 50.0859" stroke="black" stroke-width="1.6" stroke-linecap="round" stroke-linejoin="round"/>
<path d="M142.934 95.3899L142.227 95.0109L148.21 83.8268L148.63 84.7412L142.934 95.3899V95.3899Z" fill="#FDD504" stroke="black" stroke-width="1.6" stroke-linecap="round" stroke-linejoin="round"/>
<path d="M139.265 105.819L143.008 96.3633L141.376 95.4885L135.589 103.848C135.263 104.218 135.082 104.694 135.078 105.187C135.057 105.905 135.394 106.587 135.977 107.006C136.547 107.406 137.275 107.504 137.93 107.267C138.584 107.031 139.082 106.49 139.265 105.819H139.265Z" fill="#FDD504"/>
<mask id="mask8_106_973" style="mask-type:luminance" maskUnits="userSpaceOnUse" x="135" y="95" width="9" height="13">
<path fill-rule="evenodd" clip-rule="evenodd" d="M139.265 105.819L143.008 96.3633L141.376 95.4885L135.589 103.848C135.263 104.218 135.082 104.694 135.078 105.187C135.057 105.905 135.394 106.587 135.977 107.006C136.547 107.406 137.275 107.504 137.93 107.267C138.584 107.031 139.082 106.49 139.265 105.819H139.265Z" fill="white"/>
</mask>
<g mask="url(#mask8_106_973)">
<path d="M136.496 96.8226C139.005 100.053 144.309 96.2983 144.309 96.2983L140.651 94.3368L136.548 94.9652L135.372 97.1628" fill="#FCB006"/>
</g>
<path fill-rule="evenodd" clip-rule="evenodd" d="M139.265 105.819L143.008 96.3633L141.376 95.4885L135.589 103.848C135.263 104.218 135.082 104.694 135.078 105.187C135.057 105.905 135.394 106.587 135.977 107.006C136.547 107.406 137.275 107.504 137.93 107.267C138.584 107.031 139.082 106.49 139.265 105.819H139.265Z" stroke="black" stroke-width="1.6" stroke-linecap="round" stroke-linejoin="round"/>
<ellipse cx="142.58" cy="95.2003" rx="1.9156" ry="1.91771" fill="#E43334"/>
<mask id="mask9_106_973" style="mask-type:luminance" maskUnits="userSpaceOnUse" x="140" y="93" width="5" height="5">
<ellipse cx="142.58" cy="95.2003" rx="1.9156" ry="1.91771" fill="white"/>
</mask>
<g mask="url(#mask9_106_973)">
<path d="M144.243 92.9421C144.307 98.015 139.305 95.9264 139.305 95.9264L144.066 99.6643L146.399 95.5799" fill="#C11F27"/>
</g>
<ellipse cx="142.58" cy="95.2003" rx="1.9156" ry="1.91771" stroke="black" stroke-width="1.6" stroke-linecap="round" stroke-linejoin="round"/>
<path d="M156.928 85.4221L150.869 96.7497L147.893 102.313C147.839 105.714 149.959 109.675 153.616 113.181C157.848 117.155 163.051 119.944 168.703 121.27C173.645 122.374 178.113 121.945 180.911 120.015L183.887 114.452L189.947 103.124L156.928 85.4221Z" fill="#232C3F"/>
<path d="M165.763 105.318L143.963 84.1367C142.013 82.2429 143.701 78.9683 146.372 79.4607L176.441 85.0029C177.599 85.2164 178.662 85.786 179.48 86.6322L200.754 108.616C202.644 110.569 200.857 113.79 198.202 113.216L168.508 106.789C167.474 106.565 166.523 106.055 165.763 105.318Z" fill="#485065"/>
<mask id="mask10_106_973" style="mask-type:luminance" maskUnits="userSpaceOnUse" x="143" y="79" width="59" height="35">
<path fill-rule="evenodd" clip-rule="evenodd" d="M165.763 105.318L143.963 84.1367C142.013 82.2429 143.701 78.9683 146.372 79.4607L176.441 85.0029C177.599 85.2164 178.662 85.786 179.48 86.6322L200.754 108.616C202.644 110.569 200.857 113.79 198.202 113.216L168.508 106.789C167.474 106.565 166.523 106.055 165.763 105.318Z" fill="white"/>
</mask>
<g mask="url(#mask10_106_973)">
<path d="M173.183 82.9509C140.778 80.167 156.826 96.4732 165.763 105.318C174.701 114.162 132.031 91.7203 132.031 91.7203L141.449 75.592L148.977 73.6949" fill="#232C3F"/>
</g>
<path fill-rule="evenodd" clip-rule="evenodd" d="M165.763 105.318L143.963 84.1367C142.013 82.2429 143.701 78.9683 146.372 79.4607L176.441 85.0029C177.599 85.2164 178.662 85.786 179.48 86.6322L200.754 108.616C202.644 110.569 200.857 113.79 198.202 113.216L168.508 106.789C167.474 106.565 166.523 106.055 165.763 105.318Z" stroke="black" stroke-width="1.6" stroke-linecap="round" stroke-linejoin="round"/>
<path d="M177.752 116.391C176.197 116.529 174.631 116.485 173.085 116.26" stroke="black" stroke-width="1.6" stroke-linecap="round" stroke-linejoin="round"/>
<path d="M167.109 91.9967C169.421 92.1249 171.714 92.4924 173.95 93.0935" stroke="black" stroke-width="1.6" stroke-linecap="round" stroke-linejoin="round"/>
<ellipse cx="267.473" cy="102.456" rx="5.83812" ry="6.20255" fill="#FDD504" stroke="black" stroke-width="1.6" stroke-linecap="round" stroke-linejoin="round"/>
<path d="M228.805 63.5753C226.42 62.8685 228.157 72.8638 228.157 72.8638C228.157 72.8638 224.316 75.7322 224.042 77.297C223.767 78.8618 226.568 87.8044 226.568 87.8044L232.209 85.9381L228.805 63.5753Z" fill="#F9C1BB"/>
<mask id="mask11_106_973" style="mask-type:luminance" maskUnits="userSpaceOnUse" x="224" y="63" width="9" height="25">
<path fill-rule="evenodd" clip-rule="evenodd" d="M228.805 63.5753C226.42 62.8685 228.157 72.8638 228.157 72.8638C228.157 72.8638 224.316 75.7322 224.042 77.297C223.767 78.8618 226.568 87.8044 226.568 87.8044L232.209 85.9381L228.805 63.5753Z" fill="white"/>
</mask>
<g mask="url(#mask11_106_973)">
<path d="M221.392 85.1C224.366 79.8066 227.371 81.5671 231.534 81.5037C235.697 81.4403 233.551 84.675 233.551 84.675L228.116 89.7144L224.809 90.1918" fill="#ED707B"/>
</g>
<path fill-rule="evenodd" clip-rule="evenodd" d="M228.805 63.5753C226.42 62.8685 228.157 72.8638 228.157 72.8638C228.157 72.8638 224.316 75.7322 224.042 77.297C223.767 78.8618 226.568 87.8044 226.568 87.8044L232.209 85.9381L228.805 63.5753Z" stroke="black" stroke-width="1.6" stroke-linecap="round" stroke-linejoin="round"/>
<ellipse cx="256.621" cy="114.733" rx="12.3861" ry="12.2776" fill="#FDD504" stroke="black" stroke-width="1.6" stroke-linecap="round" stroke-linejoin="round"/>
<path d="M138.618 178.249L119.608 194.414L123.368 205.602L149.129 186.973L138.618 178.249V178.249Z" fill="#F9C1BB"/>
<mask id="mask12_106_973" style="mask-type:luminance" maskUnits="userSpaceOnUse" x="119" y="178" width="31" height="28">
<path fill-rule="evenodd" clip-rule="evenodd" d="M138.618 178.249L119.608 194.414L123.368 205.602L149.129 186.973L138.618 178.249V178.249Z" fill="white"/>
</mask>
<g mask="url(#mask12_106_973)">
<path d="M130.117 181.652C127.994 191.149 133.469 195.66 138.945 197.203C144.42 198.747 138.721 204.326 138.721 204.326L145.425 191.386L128.776 181.058" fill="#ED707B"/>
</g>
<path fill-rule="evenodd" clip-rule="evenodd" d="M138.618 178.249L119.608 194.414L123.368 205.602L149.129 186.973L138.618 178.249V178.249Z" stroke="black" stroke-width="1.6" stroke-linecap="round" stroke-linejoin="round"/>
<path d="M99.5012 184.11C99.5012 184.11 104.144 180.426 108.649 185.302C115.901 193.152 125.67 189.259 125.67 189.259C125.67 189.259 125.348 198.983 131.698 200.276L128.092 205.898C126.134 208.337 122.986 208.701 121.083 206.709L99.5012 184.11Z" fill="#485065" stroke="black" stroke-width="1.6" stroke-linecap="round" stroke-linejoin="round"/>
<path d="M129.428 184.812C126.989 191.925 150.064 195.385 150.064 195.385L179.251 162.968L221.018 190.51L243.867 176.639L186.81 144.617C181.145 141.033 173.694 141.671 168.761 146.161L129.428 184.812Z" fill="#FDD504"/>
<path fill-rule="evenodd" clip-rule="evenodd" d="M129.428 184.812C126.989 191.925 150.064 195.385 150.064 195.385L179.251 162.968L221.018 190.51L243.867 176.639L186.81 144.617C181.145 141.033 173.694 141.671 168.761 146.161L129.428 184.812Z" stroke="black" stroke-width="1.6" stroke-linecap="round" stroke-linejoin="round"/>
<path d="M133.269 124.175L111.662 111.46L101.827 118.327L127.893 136.551L133.269 124.175V124.175Z" fill="#F9C1BB"/>
<mask id="mask13_106_973" style="mask-type:luminance" maskUnits="userSpaceOnUse" x="101" y="111" width="33" height="26">
<path fill-rule="evenodd" clip-rule="evenodd" d="M133.269 124.175L111.662 111.46L101.827 118.327L127.893 136.551L133.269 124.175V124.175Z" fill="white"/>
</mask>
<g mask="url(#mask13_106_973)">
<path d="M98.1603 137.491C98.4414 137.043 98.7381 136.605 99.0502 136.179C107.657 124.398 127.34 120.707 127.34 120.707L121.253 136.551L101.827 137.491" fill="#ED707B"/>
</g>
<path fill-rule="evenodd" clip-rule="evenodd" d="M133.269 124.175L111.662 111.46L101.827 118.327L127.893 136.551L133.269 124.175V124.175Z" stroke="black" stroke-width="1.6" stroke-linecap="round" stroke-linejoin="round"/>
<path d="M115.684 89.7173C115.684 89.7173 120.703 92.9032 117.283 98.5516C111.778 107.644 117.218 113.748 117.218 113.748C117.218 113.748 108.918 118.158 109.571 124.431L102.966 122.792C99.9811 121.717 98.6713 118.911 100.05 116.546L115.684 89.7173Z" fill="#485065" stroke="black" stroke-width="1.6" stroke-linecap="round" stroke-linejoin="round"/>
<path d="M127.34 120.707C110.335 123.556 119.372 141.541 119.372 141.541L171.196 168.429L221.708 200.191C231.084 206.087 243.564 203.857 250.169 195.105L261.314 180.338L179.765 147.298L127.34 120.707Z" fill="#FDD504"/>
<mask id="mask14_106_973" style="mask-type:luminance" maskUnits="userSpaceOnUse" x="116" y="120" width="146" height="84">
<path fill-rule="evenodd" clip-rule="evenodd" d="M127.34 120.707C110.335 123.556 119.372 141.541 119.372 141.541L171.196 168.429L221.708 200.191C231.084 206.087 243.564 203.857 250.169 195.105L261.314 180.338L179.765 147.298L127.34 120.707Z" fill="white"/>
</mask>
<g mask="url(#mask14_106_973)">
<path d="M234.293 164.795C246.101 185.925 243.798 214.081 211.106 193.525C178.414 172.968 201.853 209.431 204.088 211.567C206.323 213.704 245.585 222.489 245.585 222.489L258.933 212.517L270.907 195.385L256.782 164.082L231.811 164.967" fill="#FCB006"/>
</g>
<path fill-rule="evenodd" clip-rule="evenodd" d="M127.34 120.707C110.335 123.556 119.372 141.541 119.372 141.541L171.196 168.429L221.708 200.191C231.084 206.087 243.564 203.857 250.169 195.105L261.314 180.338L179.765 147.298L127.34 120.707Z" stroke="black" stroke-width="1.6" stroke-linecap="round" stroke-linejoin="round"/>
<path d="M221.225 91.8825C224.808 82.5367 231.534 81.5038 231.534 81.5038L238.749 108.467L246.557 134.678L236.619 152.126C236.619 152.126 228.072 126.76 227.09 119.803C226.107 112.846 221.225 91.8825 221.225 91.8825Z" fill="#1A80FD"/>
<mask id="mask15_106_973" style="mask-type:luminance" maskUnits="userSpaceOnUse" x="221" y="81" width="26" height="72">
<path fill-rule="evenodd" clip-rule="evenodd" d="M221.225 91.8825C224.808 82.5367 231.534 81.5038 231.534 81.5038L238.749 108.467L246.557 134.678L236.619 152.126C236.619 152.126 228.072 126.76 227.09 119.803C226.107 112.846 221.225 91.8825 221.225 91.8825Z" fill="white"/>
</mask>
<g mask="url(#mask15_106_973)">
<path d="M243.484 136.693C235.835 142.94 234.786 152.636 234.293 157.723C233.8 162.81 238.919 158.853 238.919 158.853L243.484 136.693Z" fill="#ED707B"/>
<path d="M221.445 128.776C233.662 142.864 236.167 140.494 238.268 137.544C240.369 134.594 241.93 152.126 241.93 152.126L235.97 158.226L225.392 148.571L221.668 139.707" fill="#1D62FC"/>
<path d="M218.311 102.456C223.239 92.5333 228.324 84.8401 235.795 84.6751C243.265 84.51 233.887 79.2592 233.887 79.2592L217.039 83.3962" fill="white"/>
<path d="M218.311 102.456C223.239 92.5333 228.324 84.8401 235.795 84.6751C243.265 84.51 233.887 79.2592 233.887 79.2592L217.039 83.3962" stroke="black" stroke-width="1.6" stroke-linecap="round" stroke-linejoin="round"/>
</g>
<path fill-rule="evenodd" clip-rule="evenodd" d="M221.225 91.8825C224.808 82.5367 231.534 81.5038 231.534 81.5038L238.749 108.467L246.557 134.678L236.619 152.126C236.619 152.126 228.072 126.76 227.09 119.803C226.107 112.846 221.225 91.8825 221.225 91.8825Z" stroke="black" stroke-width="1.6" stroke-linecap="round" stroke-linejoin="round"/>
<path d="M246.135 134.003L261.425 132.759C268.225 152.126 261.932 187.671 261.932 187.671C253.887 187.909 223.263 163.925 228.266 164.4C228.266 164.4 237.066 161.544 235.725 147.773C235.125 141.61 237.148 138.205 239.565 136.324" fill="#1A80FD"/>
<mask id="mask16_106_973" style="mask-type:luminance" maskUnits="userSpaceOnUse" x="227" y="132" width="38" height="56">
<path fill-rule="evenodd" clip-rule="evenodd" d="M246.135 134.003L261.425 132.759C268.225 152.126 261.932 187.671 261.932 187.671C253.887 187.909 223.263 163.925 228.266 164.4C228.266 164.4 237.066 161.544 235.725 147.773C235.125 141.61 237.148 138.205 239.565 136.324" fill="white"/>
</mask>
<g mask="url(#mask16_106_973)">
<path d="M228.59 149.951C222.899 164.774 259.822 190.674 262.683 167.169C265.544 143.664 266.968 190.327 266.591 191.925C266.214 193.523 251.618 203.48 251.618 203.48L219.955 177.141C219.955 177.141 220.848 158.059 221.072 156.441C221.295 154.823 228.59 149.951 228.59 149.951Z" fill="#1D62FC"/>
<path d="M244.235 140.785C242.205 145.983 246.557 156.696 246.557 156.696L251.318 155.105C251.318 155.105 243.344 144.338 245.212 140.466L244.235 140.785Z" fill="white" stroke="black" stroke-width="1.6" stroke-linecap="round" stroke-linejoin="round"/>
<path d="M246.557 139.3C246.55 142.8 252.259 144 252.259 144V145.876C252.259 145.876 244.358 142.906 244.235 140.785C244.113 138.663 246.557 139.3 246.557 139.3Z" fill="white" stroke="black" stroke-width="1.6" stroke-linecap="round" stroke-linejoin="round"/>
<path d="M246.278 130.548L244.235 132.033L243.159 142.306L258.988 134.844V130.349" fill="white"/>
<path d="M246.278 130.548L244.235 132.033L243.159 142.306L258.988 134.844V130.349" stroke="black" stroke-width="1.6" stroke-linecap="round" stroke-linejoin="round"/>
<path d="M230.39 156.431C220.059 163.273 257.136 181.094 264.585 180.617C272.033 180.14 269.007 189.528 269.007 189.528C269.007 189.528 251.053 191.618 250.576 191.925C250.099 192.233 228.41 165.907 228.41 165.907L224.669 163.273L227.053 160.216" fill="white"/>
<path d="M230.39 156.431C220.059 163.273 257.136 181.094 264.585 180.617C272.033 180.14 269.007 189.528 269.007 189.528C269.007 189.528 251.053 191.618 250.576 191.925C250.099 192.233 228.41 165.907 228.41 165.907L224.669 163.273L227.053 160.216" stroke="black" stroke-width="1.6" stroke-linecap="round" stroke-linejoin="round"/>
</g>
<path d="M246.135 134.003L261.425 132.759C268.225 152.126 261.932 187.671 261.932 187.671C253.887 187.909 223.263 163.925 228.266 164.4C228.266 164.4 237.066 161.544 235.725 147.773C235.125 141.61 237.148 138.205 239.565 136.324" stroke="black" stroke-width="1.6" stroke-linecap="round" stroke-linejoin="round"/>
<path d="M249.655 121.229L245.585 138.898L256.782 133.136L258.933 116.763L249.655 121.229V121.229Z" fill="#F9C1BB"/>
<mask id="mask17_106_973" style="mask-type:luminance" maskUnits="userSpaceOnUse" x="245" y="116" width="14" height="23">
<path fill-rule="evenodd" clip-rule="evenodd" d="M249.655 121.229L245.585 138.898L256.782 133.136L258.933 116.763L249.655 121.229V121.229Z" fill="white"/>
</mask>
<g mask="url(#mask17_106_973)">
<path d="M246.135 134.003C249.589 135.091 252.887 126.941 252.887 126.941L244.501 123.556V130.441" fill="#ED707B"/>
</g>
<path fill-rule="evenodd" clip-rule="evenodd" d="M249.655 121.229L245.585 138.898L256.782 133.136L258.933 116.763L249.655 121.229V121.229Z" stroke="black" stroke-width="1.6" stroke-linecap="round" stroke-linejoin="round"/>
<path d="M260.861 117.742C261.27 116.783 261.627 115.803 261.932 114.807L247.183 109.189C246.674 111.597 239.68 126.082 249.172 127.247C250.779 127.444 252.233 127.243 253.55 126.701" fill="#F9C1BB"/>
<mask id="mask18_106_973" style="mask-type:luminance" maskUnits="userSpaceOnUse" x="244" y="109" width="18" height="19">
<path fill-rule="evenodd" clip-rule="evenodd" d="M260.861 117.742C261.27 116.783 261.627 115.803 261.932 114.807L247.183 109.189C246.674 111.597 239.68 126.082 249.172 127.247C250.779 127.444 252.233 127.243 253.55 126.701" fill="white"/>
</mask>
<g mask="url(#mask18_106_973)">
<ellipse opacity="0.27" cx="241.707" cy="120.328" rx="2.58716" ry="1.91988" transform="rotate(-9.46797 241.707 120.328)" fill="#ED707B"/>
<path d="M251.187 114.807C252.434 115.533 251.998 116.143 251.189 115.74C250.38 115.338 250.373 114.333 251.187 114.807Z" fill="black"/>
</g>
<path d="M260.861 117.742C261.27 116.783 261.627 115.803 261.932 114.807L247.183 109.189C246.674 111.597 239.68 126.082 249.172 127.247C250.779 127.444 252.233 127.243 253.55 126.701" stroke="black" stroke-width="1.6" stroke-linecap="round" stroke-linejoin="round"/>
<path d="M258.988 120.697C261.029 120.697 262.683 118.94 262.683 116.771C262.683 116.701 262.667 116.635 262.663 116.566C263.394 115.463 263.782 114.169 263.778 112.846C263.778 109.987 262.028 107.566 259.606 106.715C258.45 104.551 256.266 103.087 253.756 103.087" fill="#FDD504"/>
<path d="M253.756 103.087C250.041 103.087 247.03 106.286 247.03 110.233C247.03 114.034 249.825 117.132 253.35 117.356C254.064 118.139 254.971 118.72 255.98 119.04C256.65 120.04 257.744 120.697 258.988 120.697" fill="#FDD504"/>
<path d="M253.756 103.087C250.041 103.087 247.03 106.286 247.03 110.233C247.03 114.034 249.825 117.132 253.35 117.356C254.064 118.139 254.971 118.72 255.98 119.04C256.65 120.04 257.744 120.697 258.988 120.697" stroke="black" stroke-width="1.6" stroke-linecap="round" stroke-linejoin="round"/>
<path d="M254.95 119.815C255.482 119.117 256.234 118.619 257.084 118.404C258.867 117.929 260.588 118.707 260.927 120.143C261.266 121.578 260.096 123.128 258.312 123.603C257.761 123.754 257.183 123.782 256.62 123.687" fill="#F9C1BB"/>
<path d="M254.95 119.815C255.482 119.117 256.234 118.619 257.084 118.404C258.867 117.929 260.588 118.707 260.927 120.143C261.266 121.578 260.096 123.128 258.312 123.603C257.761 123.754 257.183 123.782 256.62 123.687" stroke="black" stroke-width="1.6" stroke-linecap="round" stroke-linejoin="round"/>
<path d="M289.834 72.3881C292.316 72.1545 287.66 81.7689 287.66 81.7689C287.66 81.7689 290.455 85.3841 290.246 86.9972C290.038 88.6102 284.685 96.9663 284.685 96.9663L279.877 93.9943L289.834 72.3881Z" fill="#F9C1BB"/>
<mask id="mask19_106_973" style="mask-type:luminance" maskUnits="userSpaceOnUse" x="279" y="72" width="12" height="25">
<path fill-rule="evenodd" clip-rule="evenodd" d="M289.834 72.3881C292.316 72.1545 287.66 81.7689 287.66 81.7689C287.66 81.7689 290.455 85.3841 290.246 86.9972C290.038 88.6102 284.685 96.9663 284.685 96.9663L279.877 93.9943L289.834 72.3881Z" fill="white"/>
</mask>
<g mask="url(#mask19_106_973)">
<path d="M281.472 88.6538C285.525 90.2715 287.936 92.4196 288.704 91.5179C289.472 90.6163 288.36 93.1621 288.36 93.1621L285.976 93.7456L283.3 91.8892L282.479 90.6163" fill="#ED707B"/>
</g>
<path fill-rule="evenodd" clip-rule="evenodd" d="M289.834 72.3881C292.316 72.1545 287.66 81.7689 287.66 81.7689C287.66 81.7689 290.455 85.3841 290.246 86.9972C290.038 88.6102 284.685 96.9663 284.685 96.9663L279.877 93.9943L289.834 72.3881Z" stroke="black" stroke-width="1.6" stroke-linecap="round" stroke-linejoin="round"/>
<path d="M255.242 136.939L267.979 117.547L281.922 88.2981C287.624 92.1879 290.563 99.5239 290.563 99.5239L278.122 126.484L262.683 153.709" fill="#1A80FD"/>
<mask id="mask20_106_973" style="mask-type:luminance" maskUnits="userSpaceOnUse" x="255" y="88" width="36" height="66">
<path fill-rule="evenodd" clip-rule="evenodd" d="M255.242 136.939L267.979 117.547L281.922 88.2981C287.624 92.1879 290.563 99.5239 290.563 99.5239L278.122 126.484L262.683 153.709" fill="white"/>
</mask>
<g mask="url(#mask20_106_973)">
<path d="M277.596 91.5643C281.623 90.8217 289.04 104.612 289.04 104.612L293.067 100.369L282.312 85.3057L275.636 88.0637" fill="white"/>
<path d="M277.596 91.5643C281.623 90.8217 289.04 104.612 289.04 104.612L293.067 100.369L282.312 85.3057L275.636 88.0637" stroke="black" stroke-width="1.6" stroke-linecap="round" stroke-linejoin="round"/>
</g>
<path d="M255.242 136.939L267.979 117.547L281.922 88.2981C287.624 92.1879 290.563 99.5239 290.563 99.5239L278.122 126.484L262.683 153.709" stroke="black" stroke-width="1.6" stroke-linecap="round" stroke-linejoin="round"/>
<path d="M243.867 134.738C245.933 134.181 246.557 134.095 246.557 134.095Z" fill="#1A80FD"/>
<path d="M243.867 134.738C245.933 134.181 246.557 134.095 246.557 134.095" stroke="black" stroke-width="1.6" stroke-linecap="round" stroke-linejoin="round"/>
<ellipse cx="242.669" cy="144" rx="0.7725" ry="0.77335" fill="black"/>
<ellipse cx="241.715" cy="148.137" rx="0.7725" ry="0.77335" fill="black"/>
<path d="M256.531 109.337C256.891 109.772 257.408 110.047 257.969 110.104" stroke="black" stroke-width="1.6" stroke-linecap="round" stroke-linejoin="round"/>
<path d="M244.693 166.937C245.821 167.734 247.136 168.223 248.511 168.358" stroke="black" stroke-width="1.6" stroke-linecap="round" stroke-linejoin="round"/>
<path d="M174.602 149.271L174.284 150.862" stroke="black" stroke-width="1.6" stroke-linecap="round" stroke-linejoin="round"/>
<path d="M146.946 179.822L151.396 181.094" stroke="black" stroke-width="1.6" stroke-linecap="round" stroke-linejoin="round"/>
<path d="M239.812 236.93L240.461 236.842C240.461 236.842 242.008 232.809 241.16 230.387L239.563 231.46L239.746 235.339" fill="#1A80FD"/>
<path d="M239.812 236.93L240.461 236.842C240.461 236.842 242.008 232.809 241.16 230.387L239.563 231.46L239.746 235.339" stroke="black" stroke-width="1.6" stroke-linecap="round" stroke-linejoin="round"/>
<path d="M210.492 256.226L209.927 257.458L210.11 258.838L240.461 236.842V235.681L238.865 234.233L210.492 256.226V256.226Z" fill="#1A80FD" stroke="black" stroke-width="1.6" stroke-linecap="round" stroke-linejoin="round"/>
<path d="M156.242 227.157L154.247 227.29V228.688L210.11 258.838L209.927 257.458V254.528" fill="#1A80FD"/>
<path d="M156.242 227.157L154.247 227.29V228.688L210.11 258.838L209.927 257.458V254.528" stroke="black" stroke-width="1.6" stroke-linecap="round" stroke-linejoin="round"/>
<path d="M154.247 227.29C154.247 227.29 169.813 209.708 190.768 211.906L240.461 235.681L209.927 257.458L154.247 227.29Z" fill="#1A80FD"/>
<mask id="mask21_106_973" style="mask-type:luminance" maskUnits="userSpaceOnUse" x="154" y="211" width="87" height="47">
<path fill-rule="evenodd" clip-rule="evenodd" d="M154.247 227.29C154.247 227.29 169.813 209.708 190.768 211.906L240.461 235.681L209.927 257.458L154.247 227.29Z" fill="white"/>
</mask>
<g mask="url(#mask21_106_973)">
<path d="M162.627 226.086C158.77 225.558 210.739 253.674 209.443 255.405C208.147 257.137 220.286 249.652 215.713 246.535C211.139 243.418 197.354 238.821 197.354 238.821" fill="#1D62FC"/>
</g>
<path fill-rule="evenodd" clip-rule="evenodd" d="M154.247 227.29C154.247 227.29 169.813 209.708 190.768 211.906L240.461 235.681L209.927 257.458L154.247 227.29Z" stroke="black" stroke-width="1.6" stroke-linecap="round" stroke-linejoin="round"/>
<path d="M232.079 234.587L240.461 235.681L241.16 230.387L226.391 224.093L232.079 234.587V234.587Z" fill="#1A80FD" stroke="black" stroke-width="1.6" stroke-linecap="round" stroke-linejoin="round"/>
<path d="M240.488 231.385L241.414 230.986C241.414 230.986 256.826 214.004 282.903 215.902L283.094 215.153L268.401 213.504L243.953 218.099L239.064 228.489L240.488 231.385Z" fill="#1A80FD" stroke="black" stroke-width="1.6" stroke-linecap="round" stroke-linejoin="round"/>
<path d="M238.066 230.287L241.16 230.387C241.16 230.387 256.252 212.955 283.094 215.153L259.021 204.214L226.391 214.237L220.105 222.362L238.066 230.287Z" fill="#1A80FD" stroke="black" stroke-width="1.6" stroke-linecap="round" stroke-linejoin="round"/>
<path d="M163.959 217.3L159.436 219.165C159.436 219.165 160.101 223.294 158.77 225.558L210.183 254.002L209.852 245.301L163.959 217.3Z" fill="white"/>
<mask id="mask22_106_973" style="mask-type:luminance" maskUnits="userSpaceOnUse" x="158" y="217" width="53" height="38">
<path fill-rule="evenodd" clip-rule="evenodd" d="M163.959 217.3L159.436 219.165C159.436 219.165 160.101 223.294 158.77 225.558L210.183 254.002L209.852 245.301L163.959 217.3Z" fill="white"/>
</mask>
<g mask="url(#mask22_106_973)">
<path d="M156.208 220.215L177.063 231.385L155.908 221.091L156.208 220.215V220.215Z" fill="#D6DCF2"/>
</g>
<path fill-rule="evenodd" clip-rule="evenodd" d="M163.959 217.3L159.436 219.165C159.436 219.165 160.101 223.294 158.77 225.558L210.183 254.002L209.852 245.301L163.959 217.3Z" stroke="black" stroke-width="1.6" stroke-linecap="round" stroke-linejoin="round"/>
<path d="M270.944 209.134L278.444 214.049C278.444 214.049 257.008 211.716 241.414 230.986L239.315 235.133L233.41 229.026L233.775 224.168L243.92 211.716L255.229 210.174" fill="white"/>
<path d="M270.944 209.134L278.444 214.049C278.444 214.049 257.008 211.716 241.414 230.986L239.315 235.133L233.41 229.026L233.775 224.168L243.92 211.716L255.229 210.174" stroke="black" stroke-width="1.6" stroke-linecap="round" stroke-linejoin="round"/>
<path d="M211.989 236.214L209.651 245.602L210.183 254.002L239.315 235.133L237.765 231.385L217.211 230.387L211.989 236.214V236.214Z" fill="white" stroke="black" stroke-width="1.6" stroke-linecap="round" stroke-linejoin="round"/>
<path d="M195.89 207.71C195.89 207.71 175.534 197.588 159.436 219.165L209.852 245.301C209.852 245.301 220.469 231.552 237.765 231.386L195.89 207.71Z" fill="white" stroke="black" stroke-width="1.6" stroke-linecap="round" stroke-linejoin="round"/>
<path d="M225.826 182.936C221.302 189.196 200.015 188.664 195.89 207.71L237.765 231.385C237.765 231.385 256.921 208.295 271.29 209.36V209.36L225.826 182.936Z" fill="white"/>
<mask id="mask23_106_973" style="mask-type:luminance" maskUnits="userSpaceOnUse" x="195" y="182" width="77" height="50">
<path fill-rule="evenodd" clip-rule="evenodd" d="M225.826 182.936C221.302 189.196 200.015 188.664 195.89 207.71L237.765 231.385C237.765 231.385 256.921 208.295 271.29 209.36V209.36L225.826 182.936Z" fill="white"/>
</mask>
<g mask="url(#mask23_106_973)">
<path d="M198.751 198.715C195.89 207.71 228.751 220.395 227.953 225.838C227.155 231.281 188.425 211.743 188.425 211.743V191.522" fill="#D6DCF2"/>
</g>
<path fill-rule="evenodd" clip-rule="evenodd" d="M225.826 182.936C221.302 189.196 200.015 188.664 195.89 207.71L237.765 231.385C237.765 231.385 256.921 208.295 271.29 209.36V209.36L225.826 182.936Z" stroke="black" stroke-width="1.6" stroke-linecap="round" stroke-linejoin="round"/>
<path d="M159.436 209.703C159.436 209.703 175.802 198.525 195.89 207.71L237.765 231.385C237.765 231.385 216.644 225.154 206.533 236.342L159.436 209.703Z" fill="white"/>
<mask id="mask24_106_973" style="mask-type:luminance" maskUnits="userSpaceOnUse" x="159" y="204" width="79" height="33">
<path fill-rule="evenodd" clip-rule="evenodd" d="M159.436 209.703C159.436 209.703 175.802 198.525 195.89 207.71L237.765 231.385C237.765 231.385 216.644 225.154 206.533 236.342L159.436 209.703Z" fill="white"/>
</mask>
<g mask="url(#mask24_106_973)">
<path d="M168.396 209.892L185.171 219.288C185.171 219.288 191.664 214.696 204.848 214.561L194.471 208.396C194.471 208.396 181.977 203.638 168.396 209.892Z" fill="#D6DCF2"/>
</g>
<path fill-rule="evenodd" clip-rule="evenodd" d="M159.436 209.703C159.436 209.703 175.802 198.525 195.89 207.71L237.765 231.385C237.765 231.385 216.644 225.154 206.533 236.342L159.436 209.703Z" stroke="black" stroke-width="1.6" stroke-linecap="round" stroke-linejoin="round"/>
<path d="M188.359 222.369L189.491 222.976C189.491 222.976 198.363 216.488 206.321 216.408L205.321 215.728C205.321 215.728 195.532 216.891 188.359 222.369Z" fill="#D6DCF2"/>
<path d="M192.659 224.963L193.79 225.571C193.79 225.571 202.662 219.083 210.621 219.002L209.62 218.323C209.62 218.323 199.832 219.486 192.659 224.963Z" fill="#D6DCF2"/>
<path d="M196.693 227.497L197.825 228.105C197.825 228.105 206.697 221.617 214.656 221.536L213.655 220.857C213.655 220.857 203.866 222.02 196.693 227.497Z" fill="#D6DCF2"/>
<path d="M188.568 214.022L187.364 214.323" stroke="black" stroke-width="1.6" stroke-linecap="round" stroke-linejoin="round"/>
<path d="M233.084 207.04L234.311 205.552" stroke="black" stroke-width="1.6" stroke-linecap="round" stroke-linejoin="round"/>
<path d="M224.941 239.054C224.483 239.44 223.937 239.708 223.352 239.835" stroke="black" stroke-width="1.6" stroke-linecap="round" stroke-linejoin="round"/>
</g>
<defs>
<filter id="filter0_d_106_973" x="0" y="0.362305" width="378.822" height="303.275" filterUnits="userSpaceOnUse" color-interpolation-filters="sRGB">
<feFlood flood-opacity="0" result="BackgroundImageFix"/>
<feColorMatrix in="SourceAlpha" type="matrix" values="0 0 0 0 0 0 0 0 0 0 0 0 0 0 0 0 0 0 127 0" result="hardAlpha"/>
<feOffset dx="3" dy="10"/>
<feGaussianBlur stdDeviation="17"/>
<feComposite in2="hardAlpha" operator="out"/>
<feColorMatrix type="matrix" values="0 0 0 0 0 0 0 0 0 0 0 0 0 0 0 0 0 0 0.25 0"/>
<feBlend mode="normal" in2="BackgroundImageFix" result="effect1_dropShadow_106_973"/>
<feBlend mode="normal" in="SourceGraphic" in2="effect1_dropShadow_106_973" result="shape"/>
</filter>
</defs>
</svg>
